<?xml version="1.0" encoding="UTF-8" standalone="no"?>
<!-- Created with Fritzing (http://www.fritzing.org/) -->

<svg
   xmlns:dc="http://purl.org/dc/elements/1.1/"
   xmlns:cc="http://creativecommons.org/ns#"
   xmlns:rdf="http://www.w3.org/1999/02/22-rdf-syntax-ns#"
   xmlns:svg="http://www.w3.org/2000/svg"
   xmlns="http://www.w3.org/2000/svg"
   xmlns:xlink="http://www.w3.org/1999/xlink"
   xmlns:sodipodi="http://sodipodi.sourceforge.net/DTD/sodipodi-0.dtd"
   xmlns:inkscape="http://www.inkscape.org/namespaces/inkscape"
   width="90"
   x="0in"
   version="1.2"
   y="0in"
   height="90"
   viewBox="0 0 999.99993 1000"
   id="svg2"
   inkscape:version="0.48.4 r9939"
   sodipodi:docname="Troyka_sample.svg">
  <metadata
     id="metadata157">
    <rdf:RDF>
      <cc:Work
         rdf:about="">
        <dc:format>image/svg+xml</dc:format>
        <dc:type
           rdf:resource="http://purl.org/dc/dcmitype/StillImage" />
        <dc:title />
      </cc:Work>
    </rdf:RDF>
  </metadata>
  <defs
     id="defs155">
    <clipPath
       clipPathUnits="userSpaceOnUse"
       id="clipPath18">
      <path
         inkscape:connector-curvature="0"
         d="m 0,0 1786.82,0 0,3550 L 0,3550 0,0 z"
         id="path20" />
    </clipPath>
    <clipPath
       clipPathUnits="userSpaceOnUse"
       id="clipPath18-1">
      <path
         inkscape:connector-curvature="0"
         d="m 0,0 1786.82,0 0,3550 L 0,3550 0,0 z"
         id="path20-7" />
    </clipPath>
  </defs>
  <sodipodi:namedview
     pagecolor="#ffffff"
     bordercolor="#666666"
     borderopacity="1"
     objecttolerance="10"
     gridtolerance="10"
     guidetolerance="10"
     inkscape:pageopacity="0"
     inkscape:pageshadow="2"
     inkscape:window-width="1920"
     inkscape:window-height="1017"
     id="namedview153"
     showgrid="false"
     units="px"
     inkscape:zoom="5.871136"
     inkscape:cx="47.987731"
     inkscape:cy="31.205017"
     inkscape:window-x="-8"
     inkscape:window-y="-8"
     inkscape:window-maximized="1"
     inkscape:current-layer="layer2" />
  <desc
     id="desc4">Fritzing breadboard generated by brd2svg</desc>
  <g
     inkscape:groupmode="layer"
     id="layer4"
     inkscape:label="pic"
     style="display:none">
    <image
       style="display:inline"
       width="1000"
       height="1000"
       xlink:href="file:///D:/docs/Documents/%D0%A2%D0%B5%D0%BA%D1%81%D1%82%20%D0%B4%D0%BB%D1%8F%20%D1%81%D0%B0%D0%B9%D1%82%D0%B0/%D0%9F%D1%80%D0%BE%D0%B4%D1%83%D0%BA%D1%82%D1%8B/%D0%A8%D1%91%D0%BB%D0%BA/module-m2-mosfet-a5-placement-n.png"
       id="image3142"
       x="0"
       y="0" />
  </g>
  <g
     inkscape:groupmode="layer"
     id="layer1"
     inkscape:label="design"
     style="display:inline" />
  <g
     inkscape:groupmode="layer"
     id="layer3"
     inkscape:label="copper"
     style="display:inline" />
  <g
     inkscape:groupmode="layer"
     id="layer2"
     inkscape:label="breadbord"
     style="display:inline">
    <g
       id="g3172">
      <path
         transform="matrix(11.111111,0,0,11.111111,-3.5e-5,0)"
         id="rect3082"
         d="M 5.65625 0 C 5.65625 3.1310631 3.1310631 5.65625 0 5.65625 L 0 84.34375 C 3.1310631 84.34375 5.65625 86.868937 5.65625 90 L 84.34375 90 C 84.34375 86.868937 86.868937 84.34375 90 84.34375 L 90 5.65625 C 86.868937 5.65625 84.34375 3.1310631 84.34375 0 L 5.65625 0 z "
         style="display:inline;fill:#e6e6e6;fill-opacity:1;fill-rule:nonzero;stroke:#000000;stroke-opacity:1;stroke-width:0.10000000000000001;stroke-miterlimit:0;stroke-dasharray:none" />
      <g
         id="g3114">
        <g
           style="fill:#000000;display:inline"
           id="g14"
           transform="matrix(0,-0.06719612,-0.06719612,0,976.29943,197.12441)">
          <g
             style="fill:#000000"
             clip-path="url(#clipPath18-1)"
             id="g16">
            <path
               id="path22"
               style="fill:#000000;fill-opacity:1;fill-rule:nonzero;stroke:none"
               d="m 81.7031,896.66 1623.4369,0 c 30.71,113.3 57.19,219.18 68.05,287.53 20.56,129.75 15.61,443.91 0,525.89 -27.05,141.92 -126.8,327.45 -194.07,484.92 l -487.74,-337.28 135.3,-82.48 0,-234.53 -307.524,197.9 -286.187,-197.9 0,234.53 113.32,74.61 -538.051,346.25 C 140.953,2038.39 40.7852,1852.34 13.6445,1710.08 c -15.58981,-81.98 -20.62106,-396.14 0,-525.89 10.8594,-68.35 37.3399,-174.23 68.0586,-287.53 z M 182.602,538.332 c 13.793,-48.91 25.347,-90.891 33.062,-121.672 l 1355.536,0 c 7.71,30.781 19.26,72.762 33.05,121.672 l -1421.648,0 z m 253.781,2343.988 367.472,197.7 -194.3,218.33 -173.172,-138.53 0,-277.5 z m 277.519,460 436.478,-460 218,0 -2.67,256.67 -273.58,203.33 -378.228,0 z M 266.465,3044.84 c 51.555,470.86 626.91,505.63 626.91,505.63 0,0 575.415,-34.77 627.045,-505.63 18.41,-168.34 -32.37,-511.25 0,-677.54 0.42,-2.21 0.98,-4.51 1.45,-6.75 l -603.475,-397.37 -653.207,398.2 c 0.414,1.96 0.902,3.99 1.277,5.92 32.324,166.29 -18.442,509.2 0,677.54 z m 1275.105,-2874 c 0,40.93 6.28,88.531 11.67,127.492 l -1320.127,0 c 3.942,-40.32 7.918,-88.332 7.203,-111.844 -0.382,-11.289 -2.218,-12.687 -8.632,-32.398 -7.508,-23.238 -38.438,-77.9884 31.254,-89.9884 478.394,-82 692.867,-83.2305 1247.082,-15.6407 44.95,5.4688 50.24,55.1411 39.32,84.0391 -4.35,11.551 -7.77,24.551 -7.77,38.34 z m -1427.129,607.492 1557.969,0 c -11.64,-41.41 -23.31,-82.434 -34.5,-121.672 l -1488.957,0 c -11.195,39.238 -22.867,80.262 -34.512,121.672"
               inkscape:connector-curvature="0" />
          </g>
        </g>
        <path
           inkscape:connector-curvature="0"
           id="path3026"
           style="font-size:111.1111145px;font-style:normal;font-variant:normal;font-weight:bold;font-stretch:normal;text-align:start;line-height:100%;letter-spacing:0px;word-spacing:0px;text-anchor:start;fill:#000000;fill-opacity:1;stroke:none;font-family:Trebuchet MS;-inkscape-font-specification:Trebuchet MS Bold"
           d="m 971.97906,788.49821 -16.11328,5.80512 0,27.23524 16.11328,5.53386 0,15.67925 -80.5664,-31.68403 0,-6.18489 80.5664,-31.9553 z m -56.26085,19.477 29.35113,9.54861 0,-19.09723 z" />
        <path
           inkscape:connector-curvature="0"
           id="path3028"
           style="font-size:111.1111145px;font-style:normal;font-variant:normal;font-weight:bold;font-stretch:normal;text-align:start;line-height:100%;letter-spacing:0px;word-spacing:0px;text-anchor:start;fill:#000000;fill-opacity:1;stroke:none;font-family:Trebuchet MS;-inkscape-font-specification:Trebuchet MS Bold"
           d="m 971.97906,698.11192 -36.40408,0 c -7.63161,8e-5 -11.44743,3.41804 -11.44748,10.25391 5e-5,2.02552 0.59684,3.97865 1.79037,5.85937 1.19362,1.88085 2.56804,3.20101 4.12326,3.96051 l 41.93793,0 0,13.56337 -38.51996,0 c -2.85731,4e-5 -5.12691,0.88618 -6.80881,2.65842 -1.68181,1.77231 -2.52274,4.26797 -2.52279,7.48698 5e-5,1.69997 0.63301,3.55363 1.89887,5.56098 1.26596,2.0074 2.65847,3.4632 4.17752,4.3674 l 41.77517,0 0,13.56337 -58.10547,0 0,-9.3316 5.09983,-2.76692 c -4.12321,-3.76156 -6.18484,-8.62628 -6.1849,-14.59419 6e-5,-7.70395 2.09786,-13.50907 6.29341,-17.41536 -1.9169,-1.69989 -3.44504,-4.06896 -4.58442,-7.10721 -1.13926,-3.03813 -1.70893,-6.07632 -1.70899,-9.11458 6e-5,-6.47418 1.85372,-11.5107 5.56099,-15.1096 3.70737,-3.59872 8.79815,-5.39813 15.27235,-5.39822 l 38.3572,0 z" />
        <path
           inkscape:connector-curvature="0"
           id="path3030"
           style="font-size:111.1111145px;font-style:normal;font-variant:normal;font-weight:bold;font-stretch:normal;text-align:start;line-height:100%;letter-spacing:0px;word-spacing:0px;text-anchor:start;fill:#000000;fill-opacity:1;stroke:none;font-family:Trebuchet MS;-inkscape-font-specification:Trebuchet MS Bold"
           d="m 970.51422,657.42182 24.2513,0 0,13.56337 -80.89193,0 0,-13.56337 3.90625,0 c -3.32748,-3.39986 -4.99126,-7.57738 -4.99132,-12.53256 6e-5,-18.51846 10.19971,-27.77771 30.59896,-27.77777 9.51247,6e-5 16.83668,2.55901 21.97266,7.67686 5.136,5.11796 7.70399,12.10761 7.70399,20.96897 0,4.26797 -0.84997,8.15613 -2.54991,11.6645 z m -42.42622,0 30.54471,0 c 1.98931,-2.45947 2.98395,-5.3349 2.98394,-8.62631 10e-6,-6.25719 -1.49196,-10.75119 -4.47591,-13.48198 -2.98392,-2.73072 -7.69493,-4.0961 -14.13303,-4.09614 -6.87207,4e-5 -11.70967,1.35638 -14.5128,4.06901 -2.80305,2.71271 -4.2046,7.19766 -4.20465,13.45486 5e-5,3.25523 1.26596,6.14875 3.79774,8.68056 z" />
        <path
           inkscape:connector-curvature="0"
           id="path3032"
           style="font-size:111.1111145px;font-style:normal;font-variant:normal;font-weight:bold;font-stretch:normal;text-align:start;line-height:100%;letter-spacing:0px;word-spacing:0px;text-anchor:start;fill:#000000;fill-opacity:1;stroke:none;font-family:Trebuchet MS;-inkscape-font-specification:Trebuchet MS Bold"
           d="m 947.07672,553.36366 0,41.50391 c 4.62965,-0.25317 8.22846,-1.8446 10.79644,-4.77431 2.56801,-2.92966 3.85201,-6.87208 3.852,-11.82726 1e-5,-6.18485 -1.60951,-10.88681 -4.82856,-14.1059 l 10.36241,-5.26259 c 3.87008,4.77436 5.80512,11.89964 5.80512,21.37587 0,8.86143 -2.59512,15.86916 -7.78537,21.02322 -5.19024,5.15409 -12.43307,7.73113 -21.72852,7.73112 -9.15071,10e-6 -16.56534,-2.83021 -22.24392,-8.49067 -5.67847,-5.66042 -8.51774,-12.45114 -8.5178,-20.37217 6e-5,-8.42734 2.51381,-15.19093 7.54124,-20.2908 5.02753,-5.09977 11.42944,-7.64968 19.20573,-7.64974 1.6638,6e-5 4.17754,0.37983 7.54123,1.13932 z m -10.19965,41.01563 0,-28.53733 c -8.49967,0.94044 -12.74952,5.6424 -12.74957,14.1059 5e-5,7.74019 4.2499,12.55066 12.74957,14.43143 z" />
        <path
           inkscape:connector-curvature="0"
           id="path3034"
           style="font-size:111.1111145px;font-style:normal;font-variant:normal;font-weight:bold;font-stretch:normal;text-align:start;line-height:100%;letter-spacing:0px;word-spacing:0px;text-anchor:start;fill:#000000;fill-opacity:1;stroke:none;font-family:Trebuchet MS;-inkscape-font-specification:Trebuchet MS Bold"
           d="m 926.51465,507.84499 c -1.59138,2.42336 -2.3871,5.08177 -2.38715,7.97526 5e-5,3.14673 1.42872,5.94078 4.28603,8.38216 2.85739,2.44143 6.34769,3.66213 10.47092,3.66211 l 33.09461,0 0,13.56337 -58.10547,0 0,-13.56337 5.31684,0 c -4.26788,-3.79772 -6.40185,-8.84329 -6.40191,-15.13672 6e-5,-4.62959 0.70536,-8.17415 2.11589,-10.63368 z" />
        <path
           inkscape:connector-curvature="0"
           id="path3036"
           style="font-size:111.1111145px;font-style:normal;font-variant:normal;font-weight:bold;font-stretch:normal;text-align:start;line-height:100%;letter-spacing:0px;word-spacing:0px;text-anchor:start;fill:#000000;fill-opacity:1;stroke:none;font-family:Trebuchet MS;-inkscape-font-specification:Trebuchet MS Bold"
           d="m 971.97906,456.73823 -26.31293,17.08984 6.89019,6.51042 19.42274,0 0,13.56337 -79.7526,0 -3.25521,-13.56337 47.20052,0 -22.29818,-19.36849 0,-16.3303 22.02691,19.63976 36.07856,-23.65452 z" />
        <path
           inkscape:connector-curvature="0"
           id="path3038"
           style="font-size:111.1111145px;font-style:normal;font-variant:normal;font-weight:bold;font-stretch:normal;text-align:start;line-height:100%;letter-spacing:0px;word-spacing:0px;text-anchor:start;fill:#000000;fill-opacity:1;stroke:none;font-family:Trebuchet MS;-inkscape-font-specification:Trebuchet MS Bold"
           d="m 966.17394,400.58586 c 2.02547,1.22978 3.6802,3.37279 4.9642,6.42903 1.28399,3.05631 1.92599,6.24822 1.92599,9.57574 0,6.25725 -1.5643,11.17623 -4.69292,14.75695 -3.12861,3.58073 -7.56835,5.3711 -13.31923,5.37109 -6.72741,1e-5 -11.98999,-2.52278 -15.78776,-7.56836 -3.79771,-5.04555 -5.69658,-12.21605 -5.69661,-21.5115 3e-5,-1.5914 0.2713,-3.47219 0.8138,-5.64236 -6.8359,4e-5 -10.25386,4.32223 -10.25391,12.96658 5e-5,5.09985 0.85002,9.36778 2.54991,12.80382 l -10.52517,2.92969 c -2.24242,-4.66579 -3.36366,-10.21772 -3.36372,-16.65582 6e-5,-8.86137 2.01648,-15.35369 6.04927,-19.477 4.03289,-4.12321 11.67358,-6.18484 22.92209,-6.18489 l 12.42405,0 c 7.74017,5e-5 12.60489,-1.55522 14.59418,-4.6658 1.95313,1.12129 3.15574,2.36912 3.60786,3.74349 0.45211,1.37447 0.67816,2.94782 0.67816,4.72005 0,1.95317 -0.72338,3.70736 -2.17013,5.26259 -1.44676,1.5553 -3.02011,2.6042 -4.72006,3.1467 z m -21.53863,1.30208 c -0.47016,2.31485 -0.70526,4.05096 -0.70529,5.20834 3e-5,10.70604 3.50841,16.05904 10.52517,16.05902 5.20835,2e-5 7.81251,-3.02009 7.8125,-9.06033 10e-6,-8.13798 -4.06899,-12.20699 -12.20703,-12.20703 z" />
        <path
           inkscape:connector-curvature="0"
           id="path3040"
           style="font-size:111.1111145px;font-style:normal;font-variant:normal;font-weight:bold;font-stretch:normal;text-align:start;line-height:100%;letter-spacing:0px;word-spacing:0px;text-anchor:start;fill:#000000;fill-opacity:1;stroke:none;font-family:Trebuchet MS;-inkscape-font-specification:Trebuchet MS Bold"
           d="m 964.87186,371.56026 c -2.71266,10e-6 -5.01843,-0.94942 -6.91732,-2.84831 -1.89885,-1.89885 -2.84829,-4.20462 -2.84831,-6.91731 2e-5,-2.71266 0.94946,-5.01843 2.84831,-6.91732 1.89889,-1.89885 4.20466,-2.84828 6.91732,-2.84831 2.71268,3e-5 5.02749,0.94946 6.94444,2.84831 1.91696,1.89889 2.87544,4.20466 2.87544,6.91732 0,2.71269 -0.95848,5.01846 -2.87544,6.91731 -1.91695,1.89889 -4.23176,2.84832 -6.94444,2.84831 z" />
        <path
           inkscape:connector-curvature="0"
           id="path3042"
           style="font-size:111.1111145px;font-style:normal;font-variant:normal;font-weight:bold;font-stretch:normal;text-align:start;line-height:100%;letter-spacing:0px;word-spacing:0px;text-anchor:start;fill:#000000;fill-opacity:1;stroke:none;font-family:Trebuchet MS;-inkscape-font-specification:Trebuchet MS Bold"
           d="m 926.51465,299.29463 c -1.59138,2.42336 -2.3871,5.08178 -2.38715,7.97526 5e-5,3.14673 1.42872,5.94079 4.28603,8.38216 2.85739,2.44143 6.34769,3.66214 10.47092,3.66211 l 33.09461,0 0,13.56337 -58.10547,0 0,-13.56337 5.31684,0 c -4.26788,-3.79771 -6.40185,-8.84328 -6.40191,-15.13671 6e-5,-4.62959 0.70536,-8.17415 2.11589,-10.63369 z" />
        <path
           inkscape:connector-curvature="0"
           id="path3044"
           style="font-size:111.1111145px;font-style:normal;font-variant:normal;font-weight:bold;font-stretch:normal;text-align:start;line-height:100%;letter-spacing:0px;word-spacing:0px;text-anchor:start;fill:#000000;fill-opacity:1;stroke:none;font-family:Trebuchet MS;-inkscape-font-specification:Trebuchet MS Bold"
           d="m 972.03332,247.9166 -4.88281,0 c 1.6276,1.917 3.02011,4.55734 4.17751,7.92101 1.15741,3.36375 1.73611,6.4562 1.73611,9.27735 0,13.49104 -7.16145,20.23655 -21.48437,20.23654 l -37.70617,0 0,-13.56337 36.67535,0 c 7.45083,2e-5 11.17623,-3.3456 11.17622,-10.03689 1e-5,-3.07433 -0.79571,-5.93168 -2.38715,-8.57205 -1.59143,-2.64029 -3.43604,-4.39449 -5.53386,-5.26259 l -39.93056,0 0,-13.56336 58.15973,0 z" />
        <g
           id="g6838"
           transform="matrix(0,-4.513462,4.513462,0,-2517.9757,1413.6606)"
           style="font-size:105.24749756px;font-style:normal;font-weight:normal;text-align:start;line-height:100%;letter-spacing:0px;word-spacing:0px;text-anchor:start;fill:#000000;fill-opacity:1;stroke:none;display:inline;font-family:Sans">
          <g
             transform="translate(-240,-0.25)"
             id="g6833">
            <rect
               style="fill:none;stroke:#000000;stroke-width:2.18852067;stroke-miterlimit:4;stroke-opacity:1;stroke-dasharray:none"
               id="rect6749"
               width="71.426117"
               height="21.751863"
               x="336.33417"
               y="635.11981"
               rx="0.76878577" />
            <rect
               style="fill:none;stroke:#000000;stroke-width:2.2461803;stroke-miterlimit:4;stroke-opacity:1;stroke-dasharray:none"
               id="rect6749-9"
               width="71.368454"
               height="22.931641"
               x="336.36301"
               y="656.84894"
               rx="0.76816517" />
            <rect
               style="fill:none;stroke:#000000;stroke-width:2.2461803;stroke-miterlimit:4;stroke-opacity:1;stroke-dasharray:none"
               id="rect6749-9-3"
               width="71.368454"
               height="22.931641"
               x="336.36301"
               y="679.74158"
               rx="0.76816517" />
          </g>
        </g>
        <g
           id="g8150"
           transform="matrix(0,-4.513462,4.513462,0,-1877.155,2529.2211)"
           style="font-size:105.24749756px;font-style:normal;font-weight:normal;text-align:start;line-height:100%;letter-spacing:0px;word-spacing:0px;text-anchor:start;fill:#000000;fill-opacity:1;stroke:none;display:inline;font-family:Sans">
          <g
             transform="translate(312.25,0.06890869)"
             id="g8145">
            <rect
               style="fill:#666666;stroke:none"
               id="rect7938"
               width="27.5"
               height="13.5"
               x="46.047241"
               y="519.36218"
               rx="7.8382177"
               ry="6.75" />
            <rect
               style="fill:#666666;stroke:none;display:inline"
               id="rect7938-4"
               width="27.5"
               height="13.5"
               x="46.047241"
               y="497.36218"
               rx="7.8382177"
               ry="6.75" />
            <rect
               style="fill:#666666;stroke:none;display:inline"
               id="rect7938-46"
               width="27.5"
               height="13.5"
               x="46.047241"
               y="541.36218"
               rx="7.8382177"
               ry="6.75" />
          </g>
          <g
             transform="matrix(1.1007351,0,0,1.0461886,344.19732,-159.32011)"
             id="g7912"
             style="display:inline">
            <rect
               id="_x30_.1.5.0.0.6-7"
               x="-28.656441"
               y="-679.59338"
               width="6.7104983"
               height="6.7046638"
               style="fill:#8d8c8c"
               transform="scale(-1,-1)" />
            <rect
               id="_x30_.1.5.0.0.7-2"
               x="-28.656441"
               y="-658.58954"
               width="6.7104983"
               height="6.7046638"
               style="fill:#8d8c8c"
               transform="scale(-1,-1)" />
            <rect
               id="_x30_.1.5.0.0.32-9"
               x="-27.040094"
               y="-656.95856"
               width="3.463201"
               height="3.4544477"
               style="fill:#8c8663"
               transform="scale(-1,-1)" />
            <polygon
               id="_x30_.1.5.0.0.33-7"
               points="4.759,11.951 4.759,9.653 4.203,10.212 4.203,11.393 "
               style="fill:#b8af82"
               transform="matrix(-2.917608,0,0,-2.917608,35.839619,686.7532)" />
            <polygon
               id="_x30_.1.5.0.0.34-53"
               points="2.462,11.951 3.016,11.393 4.203,11.393 4.759,11.951 "
               style="fill:#80795b"
               transform="matrix(-2.917608,0,0,-2.917608,35.839619,686.7532)" />
            <polygon
               id="_x30_.1.5.0.0.35-4"
               points="2.462,9.653 3.016,10.212 3.016,11.393 2.462,11.951 "
               style="fill:#5e5b43"
               transform="matrix(-2.917608,0,0,-2.917608,35.839619,686.7532)" />
            <polygon
               id="_x30_.1.5.0.0.36-32"
               points="2.462,9.653 4.759,9.653 4.203,10.212 3.016,10.212 "
               style="fill:#9a916c"
               transform="matrix(-2.917608,0,0,-2.917608,35.839619,686.7532)" />
            <rect
               id="_x30_.1.5.0.0.37-1"
               x="-27.040094"
               y="-677.96539"
               width="3.463201"
               height="3.4486127"
               style="fill:#8c8663"
               transform="scale(-1,-1)" />
            <polygon
               id="_x30_.1.5.0.0.38-1"
               points="4.759,4.751 4.759,2.454 4.203,3.012 4.203,4.193 "
               style="fill:#b8af82"
               transform="matrix(-2.917608,0,0,-2.917608,35.839619,686.7532)" />
            <polygon
               id="_x30_.1.5.0.0.39-3"
               points="2.462,4.751 3.016,4.193 4.203,4.193 4.759,4.751 "
               style="fill:#80795b"
               transform="matrix(-2.917608,0,0,-2.917608,35.839619,686.7532)" />
            <polygon
               id="_x30_.1.5.0.0.40-25"
               points="2.462,2.454 3.016,3.012 3.016,4.193 2.462,4.751 "
               style="fill:#5e5b43"
               transform="matrix(-2.917608,0,0,-2.917608,35.839619,686.7532)" />
            <polygon
               id="_x30_.1.5.0.0.41-35"
               points="2.462,2.454 4.759,2.454 4.203,3.012 3.016,3.012 "
               style="fill:#9a916c"
               transform="matrix(-2.917608,0,0,-2.917608,35.839619,686.7532)" />
            <rect
               id="_x30_.1.5.0.0.6-2-26"
               x="-28.656441"
               y="-658.58862"
               width="6.7104983"
               height="6.7046638"
               style="fill:#8d8c8c"
               transform="scale(-1,-1)" />
            <rect
               id="_x30_.1.5.0.0.7-6-40"
               x="-28.656441"
               y="-637.58478"
               width="6.7104983"
               height="6.7046638"
               style="fill:#8d8c8c"
               transform="scale(-1,-1)" />
            <rect
               id="_x30_.1.5.0.0.32-4-7"
               x="-27.040094"
               y="-635.9538"
               width="3.463201"
               height="3.4544477"
               style="fill:#8c8663"
               transform="scale(-1,-1)" />
            <polygon
               id="_x30_.1.5.0.0.33-0-0"
               points="4.203,11.393 4.759,11.951 4.759,9.653 4.203,10.212 "
               style="fill:#b8af82"
               transform="matrix(-2.917608,0,0,-2.917608,35.839619,665.74841)" />
            <polygon
               id="_x30_.1.5.0.0.34-7-3"
               points="4.759,11.951 2.462,11.951 3.016,11.393 4.203,11.393 "
               style="fill:#80795b"
               transform="matrix(-2.917608,0,0,-2.917608,35.839619,665.74841)" />
            <polygon
               id="_x30_.1.5.0.0.35-0-4"
               points="2.462,11.951 2.462,9.653 3.016,10.212 3.016,11.393 "
               style="fill:#5e5b43"
               transform="matrix(-2.917608,0,0,-2.917608,35.839619,665.74841)" />
            <polygon
               id="_x30_.1.5.0.0.36-3-0"
               points="3.016,10.212 2.462,9.653 4.759,9.653 4.203,10.212 "
               style="fill:#9a916c"
               transform="matrix(-2.917608,0,0,-2.917608,35.839619,665.74841)" />
            <rect
               id="_x30_.1.5.0.0.37-4-0"
               x="-27.040094"
               y="-656.96057"
               width="3.463201"
               height="3.4486127"
               style="fill:#8c8663"
               transform="scale(-1,-1)" />
            <polygon
               id="_x30_.1.5.0.0.38-0-5"
               points="4.203,4.193 4.759,4.751 4.759,2.454 4.203,3.012 "
               style="fill:#b8af82"
               transform="matrix(-2.917608,0,0,-2.917608,35.839619,665.74841)" />
            <polygon
               id="_x30_.1.5.0.0.39-0-3"
               points="4.759,4.751 2.462,4.751 3.016,4.193 4.203,4.193 "
               style="fill:#80795b"
               transform="matrix(-2.917608,0,0,-2.917608,35.839619,665.74841)" />
            <polygon
               id="_x30_.1.5.0.0.40-5-10"
               points="2.462,4.751 2.462,2.454 3.016,3.012 3.016,4.193 "
               style="fill:#5e5b43"
               transform="matrix(-2.917608,0,0,-2.917608,35.839619,665.74841)" />
            <polygon
               id="_x30_.1.5.0.0.41-3-6"
               points="3.016,3.012 2.462,2.454 4.759,2.454 4.203,3.012 "
               style="fill:#9a916c"
               transform="matrix(-2.917608,0,0,-2.917608,35.839619,665.74841)" />
          </g>
        </g>
        <g
           id="g8211"
           transform="matrix(0,-4.513462,4.513462,0,-2520.3235,1413.6606)"
           style="font-size:105.24749756px;font-style:normal;font-weight:normal;text-align:start;line-height:100%;letter-spacing:0px;word-spacing:0px;text-anchor:start;fill:#000000;fill-opacity:1;stroke:none;display:inline;font-family:Sans">
          <text
             transform="matrix(0,-1,1,0,0,0)"
             sodipodi:linespacing="125%"
             id="text14375-8-2-3"
             y="163.02664"
             x="-696.84552"
             style="font-size:16.71786499px;font-style:normal;font-weight:normal;text-align:start;line-height:125%;letter-spacing:0px;word-spacing:0px;text-anchor:start;fill:#000000;fill-opacity:1;stroke:none;display:inline;font-family:Sans"
             xml:space="preserve"><tspan
               id="tspan9997"
               style="font-style:normal;font-variant:normal;font-weight:normal;font-stretch:normal;text-align:start;text-anchor:start;font-family:Trebuchet MS;-inkscape-font-specification:Trebuchet MS"
               y="163.02664"
               x="-696.84552"
               sodipodi:role="line">G</tspan></text>
          <text
             transform="matrix(0,-1,1,0,0,0)"
             sodipodi:linespacing="125%"
             id="text14375-8-2-3-0"
             y="162.94504"
             x="-673.2558"
             style="font-size:16.71786499px;font-style:normal;font-weight:normal;text-align:start;line-height:125%;letter-spacing:0px;word-spacing:0px;text-anchor:start;fill:#000000;fill-opacity:1;stroke:none;display:inline;font-family:Sans"
             xml:space="preserve"><tspan
               id="tspan9997-6"
               style="font-style:normal;font-variant:normal;font-weight:normal;font-stretch:normal;text-align:start;text-anchor:start;font-family:Trebuchet MS;-inkscape-font-specification:Trebuchet MS"
               y="162.94504"
               x="-673.2558"
               sodipodi:role="line">V</tspan></text>
          <text
             transform="matrix(0,-1,1,0,0,0)"
             sodipodi:linespacing="125%"
             id="text14375-8-2-3-6"
             y="163.02664"
             x="-649.22937"
             style="font-size:16.71786499px;font-style:normal;font-weight:normal;text-align:start;line-height:125%;letter-spacing:0px;word-spacing:0px;text-anchor:start;fill:#000000;fill-opacity:1;stroke:none;display:inline;font-family:Sans"
             xml:space="preserve"><tspan
               id="tspan9997-1"
               style="font-style:normal;font-variant:normal;font-weight:normal;font-stretch:normal;text-align:start;text-anchor:start;font-family:Trebuchet MS;-inkscape-font-specification:Trebuchet MS"
               y="163.02664"
               x="-649.22937"
               sodipodi:role="line">S</tspan></text>
        </g>
      </g>
    </g>
  </g>
</svg>
